{"title":"Free Style DVD-by J.Tronet.avi","uid":7351634,"size":550522104,"categoryP":"video","categoryS":"other","magnet":"?xt=urn:btih:f36a0aea072543ebf8b44cae043f4cbcfa7c1cd6&amp;dn=Free+Style+DVD-by+J.Tronet.avi&amp;tr=udp%3A%2F%2Ftracker.openbittorrent.com%3A80&amp;tr=udp%3A%2F%2Fopen.demonii.com%3A1337&amp;tr=udp%3A%2F%2Ftracker.coppersurfer.tk%3A6969&amp;tr=udp%3A%2F%2Fexodus.desync.com%3A6969","seeders":0,"leechers":1,"uploader":"JohnLucio","files":-1,"time":1339622048,"description":"The first ever made kiteboarding online dvd video - a Caribbean journey around the most beautiful islands in the Caribbean with Jeremie Tronet and Linn Svendsen.\n\nGeneral\nComplete name : G:MoviesKiteboarding VideosFree Style DVD-by J.Tronet.avi\nFormat : DivX\nFormat/Info : Hack of AVI\nFile size : 525 MiB\nDuration : 20mn 0s\nOverall bit rate : 3 670 Kbps\nVideo\nID : 0\nFormat : MPEG-4 Visual\nFormat settings, BVOP : Yes\nFormat settings, QPel : No\nFormat settings, GMC : No warppoints\nFormat settings, Matrix : Default (H.263)\nCodec ID : DX50\nCodec ID/Hint : DivX 5\nDuration : 20mn 0s\nBit rate : 3 498 Kbps\nWidth : 1 200 pixels\nHeight : 672 pixels\nDisplay aspect ratio : 16:9\nFrame rate : 29.970 fps\nColor space : YUV\nChroma subsampling : 4:2:0\nBit depth : 8 bits\nScan type : Progressive\nBits/(Pixel*Frame) : 0.145\nStream size : 500 MiB (95%)\nTitle : Main\nWriting library : DivX 6.8.0 (UTC 2007-12-04)\nAudio\nID : 1\nFormat : MPEG Audio\nFormat version : Version 1\nFormat profile : Layer 3\nMode : Joint stereo\nMode extension : MS Stereo\nCodec ID : 55\nCodec ID/Hint : MP3\nDuration : 20mn 0s\nBit rate mode : Constant\nBit rate : 160 Kbps\nChannel(s) : 2 channels\nSampling rate : 48.0 KHz\nStream size : 22.9 MiB (4%)\nAlignment : Split accross interleaves\nInterleave, duration : 33 ms (1.00 video frame)\nInterleave, preload duration : 500 ms\nTitle : Audio \nWriting library : LAME3.97\n\nEnjoy, comment and Seed !","torrent":{"xt":"urn:btih:f36a0aea072543ebf8b44cae043f4cbcfa7c1cd6","amp;dn":"Free+Style+DVD-by+J.Tronet.avi","amp;tr":["udp%3A%2F%2Ftracker.openbittorrent.com%3A80","udp%3A%2F%2Fopen.demonii.com%3A1337","udp%3A%2F%2Ftracker.coppersurfer.tk%3A6969","udp%3A%2F%2Fexodus.desync.com%3A6969"],"infoHash":"f36a0aea072543ebf8b44cae043f4cbcfa7c1cd6","infoHashBuffer":{"type":"Buffer","data":[243,106,10,234,7,37,67,235,248,180,76,174,4,63,76,188,250,124,28,214]},"announce":[],"urlList":[]}}